<mxfile host="app.diagrams.net" agent="Mozilla/5.0 (Windows NT 10.0; Win64; x64) AppleWebKit/537.36 (KHTML, like Gecko) Chrome/134.0.0.0 Safari/537.36" version="26.2.14">
  <diagram name="Page-1" id="Sclz0jZE_Oql-sQ_gy0H">
    <mxGraphModel dx="4211" dy="2516" grid="1" gridSize="10" guides="1" tooltips="1" connect="1" arrows="1" fold="1" page="1" pageScale="1" pageWidth="850" pageHeight="1100" math="0" shadow="0">
      <root>
        <mxCell id="0" />
        <mxCell id="1" parent="0" />
        <mxCell id="-39aGfQmlGwq7Vqm4Gj2-2" value="Laptop" style="rounded=0;whiteSpace=wrap;html=1;fontFamily=Times New Roman;fontSize=14;fillColor=#f5f5f5;fontColor=#333333;strokeColor=#666666;" parent="1" vertex="1">
          <mxGeometry x="-620" y="620" width="120" height="60" as="geometry" />
        </mxCell>
        <mxCell id="-39aGfQmlGwq7Vqm4Gj2-3" value="Compoment" style="rounded=0;whiteSpace=wrap;html=1;fontFamily=Times New Roman;fontSize=14;fillColor=#dae8fc;strokeColor=#6c8ebf;" parent="1" vertex="1">
          <mxGeometry y="620" width="120" height="60" as="geometry" />
        </mxCell>
        <mxCell id="-39aGfQmlGwq7Vqm4Gj2-4" value="Accessories" style="rounded=0;whiteSpace=wrap;html=1;fontFamily=Times New Roman;fontSize=14;fillColor=#d5e8d4;strokeColor=#82b366;" parent="1" vertex="1">
          <mxGeometry x="790" y="620" width="120" height="60" as="geometry" />
        </mxCell>
        <mxCell id="-39aGfQmlGwq7Vqm4Gj2-5" value="Brand" style="rounded=0;whiteSpace=wrap;html=1;fontFamily=Times New Roman;fontSize=14;fillColor=#ffe6cc;strokeColor=#d79b00;" parent="1" vertex="1">
          <mxGeometry x="-370" y="1100" width="120" height="60" as="geometry" />
        </mxCell>
        <mxCell id="-39aGfQmlGwq7Vqm4Gj2-8" value="Customer" style="rounded=0;whiteSpace=wrap;html=1;fontFamily=Times New Roman;fontSize=14;fillColor=#fad7ac;strokeColor=#b46504;" parent="1" vertex="1">
          <mxGeometry x="1400" y="35" width="120" height="60" as="geometry" />
        </mxCell>
        <mxCell id="-39aGfQmlGwq7Vqm4Gj2-15" value="&lt;u&gt;id&lt;/u&gt;" style="ellipse;whiteSpace=wrap;html=1;align=center;fontFamily=Times New Roman;fillColor=#f5f5f5;fontColor=#333333;strokeColor=#666666;" parent="1" vertex="1">
          <mxGeometry x="-760" y="460" width="80" height="80" as="geometry" />
        </mxCell>
        <mxCell id="-39aGfQmlGwq7Vqm4Gj2-16" value="Name" style="ellipse;whiteSpace=wrap;html=1;align=center;fontFamily=Times New Roman;" parent="1" vertex="1">
          <mxGeometry x="-650" y="440" width="80" height="80" as="geometry" />
        </mxCell>
        <mxCell id="-39aGfQmlGwq7Vqm4Gj2-18" value="CPU" style="ellipse;whiteSpace=wrap;html=1;align=center;fontFamily=Times New Roman;" parent="1" vertex="1">
          <mxGeometry x="-480" y="460" width="80" height="80" as="geometry" />
        </mxCell>
        <mxCell id="-39aGfQmlGwq7Vqm4Gj2-19" value="RAM" style="ellipse;whiteSpace=wrap;html=1;align=center;fontFamily=Times New Roman;" parent="1" vertex="1">
          <mxGeometry x="-420" y="530" width="80" height="80" as="geometry" />
        </mxCell>
        <mxCell id="-39aGfQmlGwq7Vqm4Gj2-20" value="Storage" style="ellipse;whiteSpace=wrap;html=1;align=center;fontFamily=Times New Roman;" parent="1" vertex="1">
          <mxGeometry x="-425" y="720" width="80" height="80" as="geometry" />
        </mxCell>
        <mxCell id="-39aGfQmlGwq7Vqm4Gj2-21" value="Original_price" style="ellipse;whiteSpace=wrap;html=1;align=center;fontFamily=Times New Roman;" parent="1" vertex="1">
          <mxGeometry x="-900" y="620" width="80" height="80" as="geometry" />
        </mxCell>
        <mxCell id="-39aGfQmlGwq7Vqm4Gj2-22" value="Quantity" style="ellipse;whiteSpace=wrap;html=1;align=center;fontFamily=Times New Roman;" parent="1" vertex="1">
          <mxGeometry x="-850" y="810" width="80" height="80" as="geometry" />
        </mxCell>
        <mxCell id="-39aGfQmlGwq7Vqm4Gj2-23" value="&lt;u&gt;id&lt;/u&gt;" style="ellipse;whiteSpace=wrap;html=1;align=center;fontFamily=Times New Roman;fillColor=#dae8fc;strokeColor=#6c8ebf;" parent="1" vertex="1">
          <mxGeometry x="-130" y="520" width="80" height="80" as="geometry" />
        </mxCell>
        <mxCell id="-39aGfQmlGwq7Vqm4Gj2-24" value="Name" style="ellipse;whiteSpace=wrap;html=1;align=center;fontFamily=Times New Roman;" parent="1" vertex="1">
          <mxGeometry x="20" y="490" width="80" height="80" as="geometry" />
        </mxCell>
        <mxCell id="-39aGfQmlGwq7Vqm4Gj2-25" value="Type" style="ellipse;whiteSpace=wrap;html=1;align=center;fontFamily=Times New Roman;" parent="1" vertex="1">
          <mxGeometry x="170" y="520" width="80" height="80" as="geometry" />
        </mxCell>
        <mxCell id="-39aGfQmlGwq7Vqm4Gj2-26" value="Capacity" style="ellipse;whiteSpace=wrap;html=1;align=center;fontFamily=Times New Roman;" parent="1" vertex="1">
          <mxGeometry x="270" y="600" width="80" height="80" as="geometry" />
        </mxCell>
        <mxCell id="-39aGfQmlGwq7Vqm4Gj2-28" value="Quantity" style="ellipse;whiteSpace=wrap;html=1;align=center;fontFamily=Times New Roman;" parent="1" vertex="1">
          <mxGeometry x="230" y="690" width="80" height="80" as="geometry" />
        </mxCell>
        <mxCell id="-39aGfQmlGwq7Vqm4Gj2-30" value="&lt;u&gt;id&lt;/u&gt;" style="ellipse;whiteSpace=wrap;html=1;align=center;fontFamily=Times New Roman;fillColor=#d5e8d4;strokeColor=#82b366;" parent="1" vertex="1">
          <mxGeometry x="640" y="520" width="80" height="80" as="geometry" />
        </mxCell>
        <mxCell id="-39aGfQmlGwq7Vqm4Gj2-31" value="Name" style="ellipse;whiteSpace=wrap;html=1;align=center;fontFamily=Times New Roman;" parent="1" vertex="1">
          <mxGeometry x="800" y="450" width="80" height="80" as="geometry" />
        </mxCell>
        <mxCell id="-39aGfQmlGwq7Vqm4Gj2-32" value="Type" style="ellipse;whiteSpace=wrap;html=1;align=center;fontFamily=Times New Roman;" parent="1" vertex="1">
          <mxGeometry x="950" y="520" width="80" height="80" as="geometry" />
        </mxCell>
        <mxCell id="-39aGfQmlGwq7Vqm4Gj2-35" value="Quantity" style="ellipse;whiteSpace=wrap;html=1;align=center;fontFamily=Times New Roman;" parent="1" vertex="1">
          <mxGeometry x="630" y="650" width="80" height="80" as="geometry" />
        </mxCell>
        <mxCell id="-39aGfQmlGwq7Vqm4Gj2-36" value="&lt;u&gt;id&lt;/u&gt;" style="ellipse;whiteSpace=wrap;html=1;align=center;fontFamily=Times New Roman;fillColor=#ffe6cc;strokeColor=#d79b00;" parent="1" vertex="1">
          <mxGeometry x="-510" y="1200" width="80" height="80" as="geometry" />
        </mxCell>
        <mxCell id="-39aGfQmlGwq7Vqm4Gj2-37" value="Name" style="ellipse;whiteSpace=wrap;html=1;align=center;fontFamily=Times New Roman;" parent="1" vertex="1">
          <mxGeometry x="-210" y="1200" width="80" height="80" as="geometry" />
        </mxCell>
        <mxCell id="-39aGfQmlGwq7Vqm4Gj2-40" value="" style="endArrow=none;html=1;rounded=0;exitX=1;exitY=1;exitDx=0;exitDy=0;entryX=0;entryY=0;entryDx=0;entryDy=0;" parent="1" source="-39aGfQmlGwq7Vqm4Gj2-15" target="-39aGfQmlGwq7Vqm4Gj2-2" edge="1">
          <mxGeometry relative="1" as="geometry">
            <mxPoint x="80" y="900" as="sourcePoint" />
            <mxPoint x="240" y="900" as="targetPoint" />
          </mxGeometry>
        </mxCell>
        <mxCell id="-39aGfQmlGwq7Vqm4Gj2-41" value="" style="endArrow=none;html=1;rounded=0;exitX=0.5;exitY=1;exitDx=0;exitDy=0;entryX=0.25;entryY=0;entryDx=0;entryDy=0;" parent="1" source="-39aGfQmlGwq7Vqm4Gj2-16" target="-39aGfQmlGwq7Vqm4Gj2-2" edge="1">
          <mxGeometry relative="1" as="geometry">
            <mxPoint x="-702" y="578" as="sourcePoint" />
            <mxPoint x="-610" y="630" as="targetPoint" />
          </mxGeometry>
        </mxCell>
        <mxCell id="-39aGfQmlGwq7Vqm4Gj2-42" value="" style="endArrow=none;html=1;rounded=0;exitX=0.5;exitY=1;exitDx=0;exitDy=0;entryX=0.75;entryY=0;entryDx=0;entryDy=0;" parent="1" source="-39aGfQmlGwq7Vqm4Gj2-18" target="-39aGfQmlGwq7Vqm4Gj2-2" edge="1">
          <mxGeometry relative="1" as="geometry">
            <mxPoint x="-570" y="570" as="sourcePoint" />
            <mxPoint x="-580" y="630" as="targetPoint" />
          </mxGeometry>
        </mxCell>
        <mxCell id="-39aGfQmlGwq7Vqm4Gj2-43" value="" style="endArrow=none;html=1;rounded=0;exitX=0;exitY=0.5;exitDx=0;exitDy=0;entryX=1;entryY=0.25;entryDx=0;entryDy=0;" parent="1" source="-39aGfQmlGwq7Vqm4Gj2-19" target="-39aGfQmlGwq7Vqm4Gj2-2" edge="1">
          <mxGeometry relative="1" as="geometry">
            <mxPoint x="-430" y="570" as="sourcePoint" />
            <mxPoint x="-550" y="630" as="targetPoint" />
          </mxGeometry>
        </mxCell>
        <mxCell id="-39aGfQmlGwq7Vqm4Gj2-44" value="" style="endArrow=none;html=1;rounded=0;exitX=0;exitY=0;exitDx=0;exitDy=0;entryX=1;entryY=0.75;entryDx=0;entryDy=0;" parent="1" source="-39aGfQmlGwq7Vqm4Gj2-20" target="-39aGfQmlGwq7Vqm4Gj2-2" edge="1">
          <mxGeometry relative="1" as="geometry">
            <mxPoint x="-360" y="650" as="sourcePoint" />
            <mxPoint x="-490" y="645" as="targetPoint" />
          </mxGeometry>
        </mxCell>
        <mxCell id="-39aGfQmlGwq7Vqm4Gj2-45" value="" style="endArrow=none;html=1;rounded=0;exitX=1;exitY=0;exitDx=0;exitDy=0;entryX=0;entryY=1;entryDx=0;entryDy=0;" parent="1" source="-39aGfQmlGwq7Vqm4Gj2-22" target="-39aGfQmlGwq7Vqm4Gj2-2" edge="1">
          <mxGeometry relative="1" as="geometry">
            <mxPoint x="-403" y="742" as="sourcePoint" />
            <mxPoint x="-490" y="675" as="targetPoint" />
          </mxGeometry>
        </mxCell>
        <mxCell id="-39aGfQmlGwq7Vqm4Gj2-46" value="" style="endArrow=none;html=1;rounded=0;exitX=1;exitY=0.5;exitDx=0;exitDy=0;entryX=0;entryY=0.5;entryDx=0;entryDy=0;" parent="1" source="-39aGfQmlGwq7Vqm4Gj2-21" target="-39aGfQmlGwq7Vqm4Gj2-2" edge="1">
          <mxGeometry relative="1" as="geometry">
            <mxPoint x="-702" y="742" as="sourcePoint" />
            <mxPoint x="-610" y="690" as="targetPoint" />
          </mxGeometry>
        </mxCell>
        <mxCell id="-39aGfQmlGwq7Vqm4Gj2-47" value="" style="endArrow=none;html=1;rounded=0;exitX=0;exitY=0;exitDx=0;exitDy=0;entryX=0.5;entryY=1;entryDx=0;entryDy=0;" parent="1" source="-39aGfQmlGwq7Vqm4Gj2-5" target="-39aGfQmlGwq7Vqm4Gj2-50" edge="1">
          <mxGeometry relative="1" as="geometry">
            <mxPoint x="197" y="957" as="sourcePoint" />
            <mxPoint x="110" y="890" as="targetPoint" />
          </mxGeometry>
        </mxCell>
        <mxCell id="-39aGfQmlGwq7Vqm4Gj2-48" value="" style="endArrow=none;html=1;rounded=0;exitX=0;exitY=1;exitDx=0;exitDy=0;entryX=1;entryY=0;entryDx=0;entryDy=0;" parent="1" source="-39aGfQmlGwq7Vqm4Gj2-5" target="-39aGfQmlGwq7Vqm4Gj2-36" edge="1">
          <mxGeometry relative="1" as="geometry">
            <mxPoint x="207" y="967" as="sourcePoint" />
            <mxPoint x="120" y="900" as="targetPoint" />
          </mxGeometry>
        </mxCell>
        <mxCell id="-39aGfQmlGwq7Vqm4Gj2-49" value="" style="endArrow=none;html=1;rounded=0;exitX=1;exitY=1;exitDx=0;exitDy=0;entryX=0;entryY=0;entryDx=0;entryDy=0;" parent="1" source="-39aGfQmlGwq7Vqm4Gj2-5" target="-39aGfQmlGwq7Vqm4Gj2-37" edge="1">
          <mxGeometry relative="1" as="geometry">
            <mxPoint x="-360" y="1170" as="sourcePoint" />
            <mxPoint x="-432" y="1222" as="targetPoint" />
          </mxGeometry>
        </mxCell>
        <mxCell id="-39aGfQmlGwq7Vqm4Gj2-50" value="Has" style="shape=rhombus;perimeter=rhombusPerimeter;whiteSpace=wrap;html=1;align=center;fontFamily=Times New Roman;fontSize=14;" parent="1" vertex="1">
          <mxGeometry x="-590" y="900" width="120" height="60" as="geometry" />
        </mxCell>
        <mxCell id="-39aGfQmlGwq7Vqm4Gj2-51" value="" style="endArrow=none;html=1;rounded=0;exitX=0.5;exitY=0;exitDx=0;exitDy=0;entryX=0.5;entryY=1;entryDx=0;entryDy=0;" parent="1" source="-39aGfQmlGwq7Vqm4Gj2-50" target="-39aGfQmlGwq7Vqm4Gj2-2" edge="1">
          <mxGeometry relative="1" as="geometry">
            <mxPoint x="207" y="967" as="sourcePoint" />
            <mxPoint x="120" y="900" as="targetPoint" />
          </mxGeometry>
        </mxCell>
        <mxCell id="-39aGfQmlGwq7Vqm4Gj2-53" value="n" style="text;strokeColor=none;fillColor=none;spacingLeft=4;spacingRight=4;overflow=hidden;rotatable=0;points=[[0,0.5],[1,0.5]];portConstraint=eastwest;fontSize=14;whiteSpace=wrap;html=1;fontFamily=Times New Roman;" parent="1" vertex="1">
          <mxGeometry x="-565" y="870" width="40" height="30" as="geometry" />
        </mxCell>
        <mxCell id="-39aGfQmlGwq7Vqm4Gj2-54" value="1" style="text;strokeColor=none;fillColor=none;spacingLeft=4;spacingRight=4;overflow=hidden;rotatable=0;points=[[0,0.5],[1,0.5]];portConstraint=eastwest;fontSize=14;whiteSpace=wrap;html=1;fontFamily=Times New Roman;" parent="1" vertex="1">
          <mxGeometry x="-550" y="960" width="40" height="30" as="geometry" />
        </mxCell>
        <mxCell id="-39aGfQmlGwq7Vqm4Gj2-64" value="" style="endArrow=none;html=1;rounded=0;entryX=1;entryY=1;entryDx=0;entryDy=0;exitX=0;exitY=0;exitDx=0;exitDy=0;" parent="1" source="-39aGfQmlGwq7Vqm4Gj2-3" target="-39aGfQmlGwq7Vqm4Gj2-23" edge="1">
          <mxGeometry relative="1" as="geometry">
            <mxPoint x="435" y="1049.5" as="sourcePoint" />
            <mxPoint x="207" y="830.5" as="targetPoint" />
          </mxGeometry>
        </mxCell>
        <mxCell id="-39aGfQmlGwq7Vqm4Gj2-65" value="" style="endArrow=none;html=1;rounded=0;entryX=0.5;entryY=1;entryDx=0;entryDy=0;exitX=0.5;exitY=0;exitDx=0;exitDy=0;" parent="1" source="-39aGfQmlGwq7Vqm4Gj2-3" target="-39aGfQmlGwq7Vqm4Gj2-24" edge="1">
          <mxGeometry relative="1" as="geometry">
            <mxPoint x="10" y="630" as="sourcePoint" />
            <mxPoint x="-52" y="598" as="targetPoint" />
          </mxGeometry>
        </mxCell>
        <mxCell id="-39aGfQmlGwq7Vqm4Gj2-66" value="" style="endArrow=none;html=1;rounded=0;entryX=0;entryY=1;entryDx=0;entryDy=0;exitX=1;exitY=0;exitDx=0;exitDy=0;" parent="1" source="-39aGfQmlGwq7Vqm4Gj2-3" target="-39aGfQmlGwq7Vqm4Gj2-25" edge="1">
          <mxGeometry relative="1" as="geometry">
            <mxPoint x="70" y="630" as="sourcePoint" />
            <mxPoint x="70" y="580" as="targetPoint" />
          </mxGeometry>
        </mxCell>
        <mxCell id="-39aGfQmlGwq7Vqm4Gj2-67" value="" style="endArrow=none;html=1;rounded=0;entryX=0;entryY=0.5;entryDx=0;entryDy=0;exitX=1;exitY=0.25;exitDx=0;exitDy=0;" parent="1" source="-39aGfQmlGwq7Vqm4Gj2-3" target="-39aGfQmlGwq7Vqm4Gj2-26" edge="1">
          <mxGeometry relative="1" as="geometry">
            <mxPoint x="130" y="630" as="sourcePoint" />
            <mxPoint x="192" y="598" as="targetPoint" />
          </mxGeometry>
        </mxCell>
        <mxCell id="-39aGfQmlGwq7Vqm4Gj2-68" value="" style="endArrow=none;html=1;rounded=0;entryX=0;entryY=0;entryDx=0;entryDy=0;exitX=1;exitY=0.75;exitDx=0;exitDy=0;" parent="1" source="-39aGfQmlGwq7Vqm4Gj2-3" target="-39aGfQmlGwq7Vqm4Gj2-28" edge="1">
          <mxGeometry relative="1" as="geometry">
            <mxPoint x="130" y="645" as="sourcePoint" />
            <mxPoint x="280" y="650" as="targetPoint" />
          </mxGeometry>
        </mxCell>
        <mxCell id="-39aGfQmlGwq7Vqm4Gj2-69" value="" style="endArrow=none;html=1;rounded=0;entryX=0;entryY=0.75;entryDx=0;entryDy=0;exitX=1;exitY=0.5;exitDx=0;exitDy=0;" parent="1" source="AOWzfmbm2vQC0sfhRamE-1" target="-39aGfQmlGwq7Vqm4Gj2-3" edge="1">
          <mxGeometry relative="1" as="geometry">
            <mxPoint x="-80" y="680" as="sourcePoint" />
            <mxPoint x="252" y="712" as="targetPoint" />
          </mxGeometry>
        </mxCell>
        <mxCell id="-39aGfQmlGwq7Vqm4Gj2-70" value="" style="endArrow=none;html=1;rounded=0;exitX=0.5;exitY=1;exitDx=0;exitDy=0;entryX=1;entryY=0;entryDx=0;entryDy=0;fillColor=#dae8fc;strokeColor=#6c8ebf;" parent="1" source="-39aGfQmlGwq7Vqm4Gj2-71" target="-39aGfQmlGwq7Vqm4Gj2-5" edge="1">
          <mxGeometry relative="1" as="geometry">
            <mxPoint x="435" y="1049.5" as="sourcePoint" />
            <mxPoint x="207" y="890" as="targetPoint" />
          </mxGeometry>
        </mxCell>
        <mxCell id="-39aGfQmlGwq7Vqm4Gj2-71" value="Has" style="shape=rhombus;perimeter=rhombusPerimeter;whiteSpace=wrap;html=1;align=center;fontFamily=Times New Roman;fontSize=14;fillColor=#dae8fc;strokeColor=#6c8ebf;" parent="1" vertex="1">
          <mxGeometry x="10" y="870" width="120" height="60" as="geometry" />
        </mxCell>
        <mxCell id="-39aGfQmlGwq7Vqm4Gj2-72" value="" style="endArrow=none;html=1;rounded=0;entryX=0.5;entryY=1;entryDx=0;entryDy=0;exitX=0.5;exitY=0;exitDx=0;exitDy=0;fillColor=#dae8fc;strokeColor=#6c8ebf;" parent="1" source="-39aGfQmlGwq7Vqm4Gj2-71" target="-39aGfQmlGwq7Vqm4Gj2-3" edge="1">
          <mxGeometry relative="1" as="geometry">
            <mxPoint x="435" y="1049.5" as="sourcePoint" />
            <mxPoint x="207" y="830.5" as="targetPoint" />
          </mxGeometry>
        </mxCell>
        <mxCell id="-39aGfQmlGwq7Vqm4Gj2-73" value="1" style="text;strokeColor=none;fillColor=none;spacingLeft=4;spacingRight=4;overflow=hidden;rotatable=0;points=[[0,0.5],[1,0.5]];portConstraint=eastwest;fontSize=14;whiteSpace=wrap;html=1;fontFamily=Times New Roman;" parent="1" vertex="1">
          <mxGeometry x="60" y="930" width="40" height="30" as="geometry" />
        </mxCell>
        <mxCell id="-39aGfQmlGwq7Vqm4Gj2-74" value="n" style="text;strokeColor=none;fillColor=none;spacingLeft=4;spacingRight=4;overflow=hidden;rotatable=0;points=[[0,0.5],[1,0.5]];portConstraint=eastwest;fontSize=14;whiteSpace=wrap;html=1;fontFamily=Times New Roman;" parent="1" vertex="1">
          <mxGeometry x="50" y="840" width="40" height="30" as="geometry" />
        </mxCell>
        <mxCell id="-39aGfQmlGwq7Vqm4Gj2-75" value="" style="endArrow=none;html=1;rounded=0;entryX=1;entryY=1;entryDx=0;entryDy=0;exitX=0;exitY=0;exitDx=0;exitDy=0;" parent="1" source="-39aGfQmlGwq7Vqm4Gj2-4" target="-39aGfQmlGwq7Vqm4Gj2-30" edge="1">
          <mxGeometry relative="1" as="geometry">
            <mxPoint x="435" y="1049.5" as="sourcePoint" />
            <mxPoint x="207" y="830.5" as="targetPoint" />
          </mxGeometry>
        </mxCell>
        <mxCell id="-39aGfQmlGwq7Vqm4Gj2-76" value="" style="endArrow=none;html=1;rounded=0;entryX=0.5;entryY=1;entryDx=0;entryDy=0;exitX=0.5;exitY=0;exitDx=0;exitDy=0;" parent="1" source="-39aGfQmlGwq7Vqm4Gj2-4" target="-39aGfQmlGwq7Vqm4Gj2-31" edge="1">
          <mxGeometry relative="1" as="geometry">
            <mxPoint x="820" y="620" as="sourcePoint" />
            <mxPoint x="718" y="598" as="targetPoint" />
          </mxGeometry>
        </mxCell>
        <mxCell id="-39aGfQmlGwq7Vqm4Gj2-77" value="" style="endArrow=none;html=1;rounded=0;entryX=0;entryY=1;entryDx=0;entryDy=0;exitX=1;exitY=0;exitDx=0;exitDy=0;" parent="1" source="-39aGfQmlGwq7Vqm4Gj2-4" target="-39aGfQmlGwq7Vqm4Gj2-32" edge="1">
          <mxGeometry relative="1" as="geometry">
            <mxPoint x="830" y="630" as="sourcePoint" />
            <mxPoint x="850" y="540" as="targetPoint" />
          </mxGeometry>
        </mxCell>
        <mxCell id="-39aGfQmlGwq7Vqm4Gj2-78" value="" style="endArrow=none;html=1;rounded=0;entryX=0;entryY=0.5;entryDx=0;entryDy=0;exitX=1;exitY=0.5;exitDx=0;exitDy=0;" parent="1" source="-39aGfQmlGwq7Vqm4Gj2-4" target="AOWzfmbm2vQC0sfhRamE-4" edge="1">
          <mxGeometry relative="1" as="geometry">
            <mxPoint x="920" y="630" as="sourcePoint" />
            <mxPoint x="999.99999999995" y="680" as="targetPoint" />
          </mxGeometry>
        </mxCell>
        <mxCell id="-39aGfQmlGwq7Vqm4Gj2-79" value="" style="endArrow=none;html=1;rounded=0;entryX=0;entryY=0.75;entryDx=0;entryDy=0;exitX=0.983;exitY=0.625;exitDx=0;exitDy=0;exitPerimeter=0;" parent="1" source="-39aGfQmlGwq7Vqm4Gj2-35" target="-39aGfQmlGwq7Vqm4Gj2-4" edge="1">
          <mxGeometry relative="1" as="geometry">
            <mxPoint x="920" y="660" as="sourcePoint" />
            <mxPoint x="1010" y="690" as="targetPoint" />
          </mxGeometry>
        </mxCell>
        <mxCell id="-39aGfQmlGwq7Vqm4Gj2-80" value="" style="endArrow=none;html=1;rounded=0;entryX=1;entryY=0.5;entryDx=0;entryDy=0;exitX=0;exitY=0.5;exitDx=0;exitDy=0;fillColor=#d5e8d4;strokeColor=#82b366;" parent="1" source="-39aGfQmlGwq7Vqm4Gj2-81" target="-39aGfQmlGwq7Vqm4Gj2-5" edge="1">
          <mxGeometry relative="1" as="geometry">
            <mxPoint x="538" y="1219" as="sourcePoint" />
            <mxPoint x="310" y="1000" as="targetPoint" />
          </mxGeometry>
        </mxCell>
        <mxCell id="-39aGfQmlGwq7Vqm4Gj2-81" value="Has" style="shape=rhombus;perimeter=rhombusPerimeter;whiteSpace=wrap;html=1;align=center;fontFamily=Times New Roman;fontSize=14;fillColor=#d5e8d4;strokeColor=#82b366;" parent="1" vertex="1">
          <mxGeometry x="365" y="940" width="120" height="60" as="geometry" />
        </mxCell>
        <mxCell id="-39aGfQmlGwq7Vqm4Gj2-82" value="" style="endArrow=none;html=1;rounded=0;entryX=1;entryY=0.5;entryDx=0;entryDy=0;exitX=0.5;exitY=1;exitDx=0;exitDy=0;fillColor=#d5e8d4;strokeColor=#82b366;" parent="1" source="-39aGfQmlGwq7Vqm4Gj2-4" target="-39aGfQmlGwq7Vqm4Gj2-81" edge="1">
          <mxGeometry relative="1" as="geometry">
            <mxPoint x="1090" y="1290" as="sourcePoint" />
            <mxPoint x="862" y="1071" as="targetPoint" />
          </mxGeometry>
        </mxCell>
        <mxCell id="-39aGfQmlGwq7Vqm4Gj2-85" value="" style="endArrow=none;html=1;rounded=0;entryX=1;entryY=1;entryDx=0;entryDy=0;exitX=0;exitY=0.5;exitDx=0;exitDy=0;" parent="1" source="4Ifun2rpdEGk2oc76qXA-31" target="4Ifun2rpdEGk2oc76qXA-32" edge="1">
          <mxGeometry relative="1" as="geometry">
            <mxPoint x="2279" y="1644" as="sourcePoint" />
            <mxPoint x="2061" y="1275" as="targetPoint" />
          </mxGeometry>
        </mxCell>
        <mxCell id="-39aGfQmlGwq7Vqm4Gj2-86" value="1" style="text;strokeColor=none;fillColor=none;spacingLeft=4;spacingRight=4;overflow=hidden;rotatable=0;points=[[0,0.5],[1,0.5]];portConstraint=eastwest;fontSize=14;whiteSpace=wrap;html=1;fontFamily=Times New Roman;" parent="1" vertex="1">
          <mxGeometry x="365" y="980" width="40" height="30" as="geometry" />
        </mxCell>
        <mxCell id="-39aGfQmlGwq7Vqm4Gj2-87" value="n" style="text;strokeColor=none;fillColor=none;spacingLeft=4;spacingRight=4;overflow=hidden;rotatable=0;points=[[0,0.5],[1,0.5]];portConstraint=eastwest;fontSize=14;whiteSpace=wrap;html=1;fontFamily=Times New Roman;" parent="1" vertex="1">
          <mxGeometry x="470" y="930" width="40" height="30" as="geometry" />
        </mxCell>
        <mxCell id="-39aGfQmlGwq7Vqm4Gj2-118" value="&lt;u&gt;id&lt;/u&gt;" style="ellipse;whiteSpace=wrap;html=1;align=center;fontFamily=Times New Roman;fillColor=#fad7ac;strokeColor=#b46504;" parent="1" vertex="1">
          <mxGeometry x="1210" y="-65" width="80" height="80" as="geometry" />
        </mxCell>
        <mxCell id="4Ifun2rpdEGk2oc76qXA-1" value="Name" style="ellipse;whiteSpace=wrap;html=1;align=center;fontFamily=Times New Roman;" parent="1" vertex="1">
          <mxGeometry x="1420" y="-105" width="80" height="80" as="geometry" />
        </mxCell>
        <mxCell id="4Ifun2rpdEGk2oc76qXA-2" value="Date" style="ellipse;whiteSpace=wrap;html=1;align=center;fontFamily=Times New Roman;" parent="1" vertex="1">
          <mxGeometry x="1580" y="-55" width="80" height="80" as="geometry" />
        </mxCell>
        <mxCell id="4Ifun2rpdEGk2oc76qXA-3" value="Gender" style="ellipse;whiteSpace=wrap;html=1;align=center;fontFamily=Times New Roman;" parent="1" vertex="1">
          <mxGeometry x="1630" y="95" width="80" height="80" as="geometry" />
        </mxCell>
        <mxCell id="4Ifun2rpdEGk2oc76qXA-4" value="Email" style="ellipse;whiteSpace=wrap;html=1;align=center;fontFamily=Times New Roman;" parent="1" vertex="1">
          <mxGeometry x="1535" y="215" width="80" height="80" as="geometry" />
        </mxCell>
        <mxCell id="4Ifun2rpdEGk2oc76qXA-5" value="Password" style="ellipse;whiteSpace=wrap;html=1;align=center;fontFamily=Times New Roman;" parent="1" vertex="1">
          <mxGeometry x="1210" y="145" width="80" height="80" as="geometry" />
        </mxCell>
        <mxCell id="4Ifun2rpdEGk2oc76qXA-6" value="" style="endArrow=none;html=1;rounded=0;exitX=1;exitY=1;exitDx=0;exitDy=0;entryX=0;entryY=0;entryDx=0;entryDy=0;" parent="1" source="-39aGfQmlGwq7Vqm4Gj2-118" target="-39aGfQmlGwq7Vqm4Gj2-8" edge="1">
          <mxGeometry width="50" height="50" relative="1" as="geometry">
            <mxPoint x="1690" y="215" as="sourcePoint" />
            <mxPoint x="1740" y="165" as="targetPoint" />
          </mxGeometry>
        </mxCell>
        <mxCell id="4Ifun2rpdEGk2oc76qXA-7" value="" style="endArrow=none;html=1;rounded=0;exitX=0.5;exitY=1;exitDx=0;exitDy=0;entryX=0.5;entryY=0;entryDx=0;entryDy=0;" parent="1" source="4Ifun2rpdEGk2oc76qXA-1" target="-39aGfQmlGwq7Vqm4Gj2-8" edge="1">
          <mxGeometry width="50" height="50" relative="1" as="geometry">
            <mxPoint x="1288" y="13" as="sourcePoint" />
            <mxPoint x="1410" y="45" as="targetPoint" />
          </mxGeometry>
        </mxCell>
        <mxCell id="4Ifun2rpdEGk2oc76qXA-8" value="" style="endArrow=none;html=1;rounded=0;exitX=0;exitY=1;exitDx=0;exitDy=0;entryX=1;entryY=0;entryDx=0;entryDy=0;" parent="1" source="4Ifun2rpdEGk2oc76qXA-2" target="-39aGfQmlGwq7Vqm4Gj2-8" edge="1">
          <mxGeometry width="50" height="50" relative="1" as="geometry">
            <mxPoint x="1470" y="-15" as="sourcePoint" />
            <mxPoint x="1470" y="45" as="targetPoint" />
          </mxGeometry>
        </mxCell>
        <mxCell id="4Ifun2rpdEGk2oc76qXA-9" value="" style="endArrow=none;html=1;rounded=0;exitX=0;exitY=0.5;exitDx=0;exitDy=0;entryX=1;entryY=0.5;entryDx=0;entryDy=0;" parent="1" source="4Ifun2rpdEGk2oc76qXA-3" target="-39aGfQmlGwq7Vqm4Gj2-8" edge="1">
          <mxGeometry width="50" height="50" relative="1" as="geometry">
            <mxPoint x="1602" y="23" as="sourcePoint" />
            <mxPoint x="1530" y="45" as="targetPoint" />
          </mxGeometry>
        </mxCell>
        <mxCell id="4Ifun2rpdEGk2oc76qXA-10" value="" style="endArrow=none;html=1;rounded=0;exitX=0;exitY=0;exitDx=0;exitDy=0;entryX=0.75;entryY=1;entryDx=0;entryDy=0;" parent="1" source="4Ifun2rpdEGk2oc76qXA-4" target="-39aGfQmlGwq7Vqm4Gj2-8" edge="1">
          <mxGeometry width="50" height="50" relative="1" as="geometry">
            <mxPoint x="1640" y="145" as="sourcePoint" />
            <mxPoint x="1530" y="75" as="targetPoint" />
          </mxGeometry>
        </mxCell>
        <mxCell id="4Ifun2rpdEGk2oc76qXA-11" value="" style="endArrow=none;html=1;rounded=0;exitX=1;exitY=0;exitDx=0;exitDy=0;entryX=0;entryY=1;entryDx=0;entryDy=0;" parent="1" source="4Ifun2rpdEGk2oc76qXA-5" target="-39aGfQmlGwq7Vqm4Gj2-8" edge="1">
          <mxGeometry width="50" height="50" relative="1" as="geometry">
            <mxPoint x="1557" y="237" as="sourcePoint" />
            <mxPoint x="1500" y="105" as="targetPoint" />
          </mxGeometry>
        </mxCell>
        <mxCell id="4Ifun2rpdEGk2oc76qXA-22" value="Order" style="rounded=0;whiteSpace=wrap;html=1;fontFamily=Times New Roman;fontSize=14;fillColor=#fad9d5;strokeColor=#ae4132;" parent="1" vertex="1">
          <mxGeometry x="1510" y="605" width="120" height="60" as="geometry" />
        </mxCell>
        <mxCell id="4Ifun2rpdEGk2oc76qXA-23" value="&lt;u&gt;id&lt;/u&gt;" style="ellipse;whiteSpace=wrap;html=1;align=center;fontFamily=Times New Roman;fillColor=#fad9d5;strokeColor=#ae4132;" parent="1" vertex="1">
          <mxGeometry x="1350" y="505" width="80" height="80" as="geometry" />
        </mxCell>
        <mxCell id="4Ifun2rpdEGk2oc76qXA-24" value="Total_price" style="ellipse;whiteSpace=wrap;html=1;align=center;fontFamily=Times New Roman;" parent="1" vertex="1">
          <mxGeometry x="1510" y="465" width="80" height="80" as="geometry" />
        </mxCell>
        <mxCell id="4Ifun2rpdEGk2oc76qXA-25" value="Status" style="ellipse;whiteSpace=wrap;html=1;align=center;fontFamily=Times New Roman;" parent="1" vertex="1">
          <mxGeometry x="1670" y="495" width="80" height="80" as="geometry" />
        </mxCell>
        <mxCell id="4Ifun2rpdEGk2oc76qXA-27" value="" style="endArrow=none;html=1;rounded=0;entryX=0;entryY=0.25;entryDx=0;entryDy=0;exitX=1;exitY=1;exitDx=0;exitDy=0;" parent="1" source="4Ifun2rpdEGk2oc76qXA-23" target="4Ifun2rpdEGk2oc76qXA-22" edge="1">
          <mxGeometry relative="1" as="geometry">
            <mxPoint x="1270" y="115" as="sourcePoint" />
            <mxPoint x="1238" y="207" as="targetPoint" />
          </mxGeometry>
        </mxCell>
        <mxCell id="4Ifun2rpdEGk2oc76qXA-28" value="" style="endArrow=none;html=1;rounded=0;entryX=0.75;entryY=0;entryDx=0;entryDy=0;exitX=0.5;exitY=1;exitDx=0;exitDy=0;" parent="1" source="4Ifun2rpdEGk2oc76qXA-24" target="4Ifun2rpdEGk2oc76qXA-22" edge="1">
          <mxGeometry relative="1" as="geometry">
            <mxPoint x="1428" y="583" as="sourcePoint" />
            <mxPoint x="1520" y="630" as="targetPoint" />
          </mxGeometry>
        </mxCell>
        <mxCell id="4Ifun2rpdEGk2oc76qXA-29" value="" style="endArrow=none;html=1;rounded=0;entryX=1;entryY=0;entryDx=0;entryDy=0;exitX=0;exitY=1;exitDx=0;exitDy=0;" parent="1" source="4Ifun2rpdEGk2oc76qXA-25" target="4Ifun2rpdEGk2oc76qXA-22" edge="1">
          <mxGeometry relative="1" as="geometry">
            <mxPoint x="1560" y="555" as="sourcePoint" />
            <mxPoint x="1550" y="615" as="targetPoint" />
          </mxGeometry>
        </mxCell>
        <mxCell id="4Ifun2rpdEGk2oc76qXA-31" value="Order_detail" style="rounded=0;whiteSpace=wrap;html=1;fontFamily=Times New Roman;fontSize=14;fillColor=#fad9d5;strokeColor=#ae4132;" parent="1" vertex="1">
          <mxGeometry x="1760" y="995" width="120" height="60" as="geometry" />
        </mxCell>
        <mxCell id="4Ifun2rpdEGk2oc76qXA-32" value="&lt;u&gt;id&lt;/u&gt;" style="ellipse;whiteSpace=wrap;html=1;align=center;fontFamily=Times New Roman;fillColor=#fad9d5;strokeColor=#ae4132;" parent="1" vertex="1">
          <mxGeometry x="1535" y="945" width="80" height="80" as="geometry" />
        </mxCell>
        <mxCell id="jobSdDcgXIxMQ2wzm1uD-1" value="Quantity" style="ellipse;whiteSpace=wrap;html=1;align=center;fontFamily=Times New Roman;" parent="1" vertex="1">
          <mxGeometry x="1780" y="825" width="80" height="80" as="geometry" />
        </mxCell>
        <mxCell id="jobSdDcgXIxMQ2wzm1uD-2" value="Price" style="ellipse;whiteSpace=wrap;html=1;align=center;fontFamily=Times New Roman;" parent="1" vertex="1">
          <mxGeometry x="1920" y="875" width="80" height="80" as="geometry" />
        </mxCell>
        <mxCell id="jobSdDcgXIxMQ2wzm1uD-3" value="Subtotal" style="ellipse;whiteSpace=wrap;html=1;align=center;fontFamily=Times New Roman;" parent="1" vertex="1">
          <mxGeometry x="1980" y="1005" width="80" height="80" as="geometry" />
        </mxCell>
        <mxCell id="jobSdDcgXIxMQ2wzm1uD-4" value="" style="endArrow=none;html=1;rounded=0;entryX=0.5;entryY=1;entryDx=0;entryDy=0;exitX=0.25;exitY=0;exitDx=0;exitDy=0;" parent="1" source="4Ifun2rpdEGk2oc76qXA-31" target="jobSdDcgXIxMQ2wzm1uD-1" edge="1">
          <mxGeometry relative="1" as="geometry">
            <mxPoint x="1770" y="1035" as="sourcePoint" />
            <mxPoint x="1648" y="973" as="targetPoint" />
          </mxGeometry>
        </mxCell>
        <mxCell id="jobSdDcgXIxMQ2wzm1uD-5" value="" style="endArrow=none;html=1;rounded=0;entryX=0;entryY=1;entryDx=0;entryDy=0;exitX=1;exitY=0;exitDx=0;exitDy=0;" parent="1" source="4Ifun2rpdEGk2oc76qXA-31" target="jobSdDcgXIxMQ2wzm1uD-2" edge="1">
          <mxGeometry relative="1" as="geometry">
            <mxPoint x="1800" y="1005" as="sourcePoint" />
            <mxPoint x="1810" y="945" as="targetPoint" />
          </mxGeometry>
        </mxCell>
        <mxCell id="jobSdDcgXIxMQ2wzm1uD-6" value="" style="endArrow=none;html=1;rounded=0;entryX=0;entryY=0.5;entryDx=0;entryDy=0;exitX=1;exitY=0.5;exitDx=0;exitDy=0;" parent="1" source="4Ifun2rpdEGk2oc76qXA-31" target="jobSdDcgXIxMQ2wzm1uD-3" edge="1">
          <mxGeometry relative="1" as="geometry">
            <mxPoint x="1890" y="1005" as="sourcePoint" />
            <mxPoint x="1942" y="953" as="targetPoint" />
          </mxGeometry>
        </mxCell>
        <mxCell id="jobSdDcgXIxMQ2wzm1uD-8" value="Has" style="shape=rhombus;perimeter=rhombusPerimeter;whiteSpace=wrap;html=1;align=center;fontFamily=Times New Roman;fontSize=14;" parent="1" vertex="1">
          <mxGeometry x="1600" y="795" width="120" height="60" as="geometry" />
        </mxCell>
        <mxCell id="jobSdDcgXIxMQ2wzm1uD-9" value="" style="endArrow=none;html=1;rounded=0;exitX=0.5;exitY=0;exitDx=0;exitDy=0;entryX=0.75;entryY=1;entryDx=0;entryDy=0;" parent="1" source="jobSdDcgXIxMQ2wzm1uD-8" target="4Ifun2rpdEGk2oc76qXA-22" edge="1">
          <mxGeometry relative="1" as="geometry">
            <mxPoint x="1200" y="615" as="sourcePoint" />
            <mxPoint x="1360" y="615" as="targetPoint" />
          </mxGeometry>
        </mxCell>
        <mxCell id="jobSdDcgXIxMQ2wzm1uD-10" value="" style="endArrow=none;html=1;rounded=0;exitX=0;exitY=0;exitDx=0;exitDy=0;entryX=0.5;entryY=1;entryDx=0;entryDy=0;" parent="1" source="4Ifun2rpdEGk2oc76qXA-31" target="jobSdDcgXIxMQ2wzm1uD-8" edge="1">
          <mxGeometry relative="1" as="geometry">
            <mxPoint x="1670" y="805" as="sourcePoint" />
            <mxPoint x="1610" y="675" as="targetPoint" />
          </mxGeometry>
        </mxCell>
        <mxCell id="jobSdDcgXIxMQ2wzm1uD-11" value="1" style="text;strokeColor=none;fillColor=none;spacingLeft=4;spacingRight=4;overflow=hidden;rotatable=0;points=[[0,0.5],[1,0.5]];portConstraint=eastwest;fontSize=14;whiteSpace=wrap;html=1;fontFamily=Times New Roman;" parent="1" vertex="1">
          <mxGeometry x="1615" y="765" width="40" height="30" as="geometry" />
        </mxCell>
        <mxCell id="jobSdDcgXIxMQ2wzm1uD-12" value="n" style="text;strokeColor=none;fillColor=none;spacingLeft=4;spacingRight=4;overflow=hidden;rotatable=0;points=[[0,0.5],[1,0.5]];portConstraint=eastwest;fontSize=14;whiteSpace=wrap;html=1;fontFamily=Times New Roman;" parent="1" vertex="1">
          <mxGeometry x="1630" y="850" width="40" height="30" as="geometry" />
        </mxCell>
        <mxCell id="jobSdDcgXIxMQ2wzm1uD-13" value="Has" style="shape=rhombus;perimeter=rhombusPerimeter;whiteSpace=wrap;html=1;align=center;fontFamily=Times New Roman;fontSize=14;" parent="1" vertex="1">
          <mxGeometry x="1390" y="305" width="120" height="60" as="geometry" />
        </mxCell>
        <mxCell id="jobSdDcgXIxMQ2wzm1uD-14" value="" style="endArrow=none;html=1;rounded=0;exitX=0.5;exitY=0;exitDx=0;exitDy=0;entryX=0.5;entryY=1;entryDx=0;entryDy=0;" parent="1" source="jobSdDcgXIxMQ2wzm1uD-13" target="-39aGfQmlGwq7Vqm4Gj2-8" edge="1">
          <mxGeometry relative="1" as="geometry">
            <mxPoint x="1670" y="805" as="sourcePoint" />
            <mxPoint x="1610" y="675" as="targetPoint" />
          </mxGeometry>
        </mxCell>
        <mxCell id="jobSdDcgXIxMQ2wzm1uD-15" value="" style="endArrow=none;html=1;rounded=0;exitX=0.25;exitY=0;exitDx=0;exitDy=0;entryX=0.5;entryY=1;entryDx=0;entryDy=0;" parent="1" source="4Ifun2rpdEGk2oc76qXA-22" target="jobSdDcgXIxMQ2wzm1uD-13" edge="1">
          <mxGeometry relative="1" as="geometry">
            <mxPoint x="1770" y="1005" as="sourcePoint" />
            <mxPoint x="1670" y="865" as="targetPoint" />
          </mxGeometry>
        </mxCell>
        <mxCell id="jobSdDcgXIxMQ2wzm1uD-16" value="1" style="text;strokeColor=none;fillColor=none;spacingLeft=4;spacingRight=4;overflow=hidden;rotatable=0;points=[[0,0.5],[1,0.5]];portConstraint=eastwest;fontSize=14;whiteSpace=wrap;html=1;fontFamily=Times New Roman;" parent="1" vertex="1">
          <mxGeometry x="1420" y="285" width="40" height="30" as="geometry" />
        </mxCell>
        <mxCell id="jobSdDcgXIxMQ2wzm1uD-17" value="n" style="text;strokeColor=none;fillColor=none;spacingLeft=4;spacingRight=4;overflow=hidden;rotatable=0;points=[[0,0.5],[1,0.5]];portConstraint=eastwest;fontSize=14;whiteSpace=wrap;html=1;fontFamily=Times New Roman;" parent="1" vertex="1">
          <mxGeometry x="1410" y="375" width="40" height="30" as="geometry" />
        </mxCell>
        <mxCell id="Ps72x_CAPzIs01cWg0P3-1" value="Image" style="ellipse;whiteSpace=wrap;html=1;align=center;fontFamily=Times New Roman;" parent="1" vertex="1">
          <mxGeometry x="-730" y="810" width="80" height="80" as="geometry" />
        </mxCell>
        <mxCell id="Ps72x_CAPzIs01cWg0P3-2" value="" style="endArrow=none;html=1;rounded=0;exitX=0.5;exitY=0;exitDx=0;exitDy=0;entryX=0.25;entryY=1;entryDx=0;entryDy=0;" parent="1" source="Ps72x_CAPzIs01cWg0P3-1" target="-39aGfQmlGwq7Vqm4Gj2-2" edge="1">
          <mxGeometry relative="1" as="geometry">
            <mxPoint x="-702" y="742" as="sourcePoint" />
            <mxPoint x="-610" y="690" as="targetPoint" />
          </mxGeometry>
        </mxCell>
        <mxCell id="Ps72x_CAPzIs01cWg0P3-4" value="Image" style="ellipse;whiteSpace=wrap;html=1;align=center;fontFamily=Times New Roman;" parent="1" vertex="1">
          <mxGeometry x="-140" y="745" width="80" height="80" as="geometry" />
        </mxCell>
        <mxCell id="Ps72x_CAPzIs01cWg0P3-5" value="" style="endArrow=none;html=1;rounded=0;exitX=0.688;exitY=0.067;exitDx=0;exitDy=0;entryX=0.25;entryY=1;entryDx=0;entryDy=0;exitPerimeter=0;" parent="1" source="Ps72x_CAPzIs01cWg0P3-4" target="-39aGfQmlGwq7Vqm4Gj2-3" edge="1">
          <mxGeometry relative="1" as="geometry">
            <mxPoint x="-90" y="780" as="sourcePoint" />
            <mxPoint x="-30" y="690" as="targetPoint" />
          </mxGeometry>
        </mxCell>
        <mxCell id="Ps72x_CAPzIs01cWg0P3-6" value="Image" style="ellipse;whiteSpace=wrap;html=1;align=center;fontFamily=Times New Roman;" parent="1" vertex="1">
          <mxGeometry x="870" y="770" width="80" height="80" as="geometry" />
        </mxCell>
        <mxCell id="Ps72x_CAPzIs01cWg0P3-7" value="" style="endArrow=none;html=1;rounded=0;exitX=0.868;exitY=1.008;exitDx=0;exitDy=0;entryX=0.5;entryY=0;entryDx=0;entryDy=0;exitPerimeter=0;" parent="1" source="-39aGfQmlGwq7Vqm4Gj2-4" target="Ps72x_CAPzIs01cWg0P3-6" edge="1">
          <mxGeometry relative="1" as="geometry">
            <mxPoint x="980" y="835" as="sourcePoint" />
            <mxPoint x="1055" y="760" as="targetPoint" />
          </mxGeometry>
        </mxCell>
        <mxCell id="Ps72x_CAPzIs01cWg0P3-8" value="Admin" style="rounded=0;whiteSpace=wrap;html=1;fontFamily=Times New Roman;fontSize=14;fillColor=#EA6B66;strokeColor=#b85450;" parent="1" vertex="1">
          <mxGeometry x="2380" y="405" width="120" height="60" as="geometry" />
        </mxCell>
        <mxCell id="Ps72x_CAPzIs01cWg0P3-9" value="" style="endArrow=none;html=1;rounded=0;entryX=1;entryY=1;entryDx=0;entryDy=0;exitX=0;exitY=0.25;exitDx=0;exitDy=0;" parent="1" source="Ps72x_CAPzIs01cWg0P3-8" target="Ps72x_CAPzIs01cWg0P3-10" edge="1">
          <mxGeometry relative="1" as="geometry">
            <mxPoint x="2438" y="474" as="sourcePoint" />
            <mxPoint x="2220" y="105" as="targetPoint" />
          </mxGeometry>
        </mxCell>
        <mxCell id="Ps72x_CAPzIs01cWg0P3-10" value="&lt;u&gt;id&lt;/u&gt;" style="ellipse;whiteSpace=wrap;html=1;align=center;fontFamily=Times New Roman;fillColor=#EA6B66;strokeColor=#b85450;" parent="1" vertex="1">
          <mxGeometry x="2180" y="305" width="80" height="80" as="geometry" />
        </mxCell>
        <mxCell id="Ps72x_CAPzIs01cWg0P3-11" value="Name" style="ellipse;whiteSpace=wrap;html=1;align=center;fontFamily=Times New Roman;" parent="1" vertex="1">
          <mxGeometry x="2370" y="275" width="80" height="80" as="geometry" />
        </mxCell>
        <mxCell id="Ps72x_CAPzIs01cWg0P3-13" value="Email" style="ellipse;whiteSpace=wrap;html=1;align=center;fontFamily=Times New Roman;" parent="1" vertex="1">
          <mxGeometry x="2620" y="305" width="80" height="80" as="geometry" />
        </mxCell>
        <mxCell id="Ps72x_CAPzIs01cWg0P3-14" value="Password" style="ellipse;whiteSpace=wrap;html=1;align=center;fontFamily=Times New Roman;" parent="1" vertex="1">
          <mxGeometry x="2540" y="545" width="80" height="80" as="geometry" />
        </mxCell>
        <mxCell id="Ps72x_CAPzIs01cWg0P3-15" value="Phone" style="ellipse;whiteSpace=wrap;html=1;align=center;fontFamily=Times New Roman;" parent="1" vertex="1">
          <mxGeometry x="2310" y="545" width="80" height="80" as="geometry" />
        </mxCell>
        <mxCell id="Ps72x_CAPzIs01cWg0P3-17" value="" style="endArrow=none;html=1;rounded=0;entryX=0.5;entryY=1;entryDx=0;entryDy=0;exitX=0.25;exitY=0;exitDx=0;exitDy=0;" parent="1" source="Ps72x_CAPzIs01cWg0P3-8" target="Ps72x_CAPzIs01cWg0P3-11" edge="1">
          <mxGeometry relative="1" as="geometry">
            <mxPoint x="2390" y="430" as="sourcePoint" />
            <mxPoint x="2258" y="383" as="targetPoint" />
          </mxGeometry>
        </mxCell>
        <mxCell id="Ps72x_CAPzIs01cWg0P3-19" value="" style="endArrow=none;html=1;rounded=0;entryX=0;entryY=0.5;entryDx=0;entryDy=0;exitX=1;exitY=0.5;exitDx=0;exitDy=0;" parent="1" source="Ps72x_CAPzIs01cWg0P3-8" target="Ps72x_CAPzIs01cWg0P3-13" edge="1">
          <mxGeometry relative="1" as="geometry">
            <mxPoint x="2510" y="415" as="sourcePoint" />
            <mxPoint x="2582" y="383" as="targetPoint" />
          </mxGeometry>
        </mxCell>
        <mxCell id="Ps72x_CAPzIs01cWg0P3-20" value="" style="endArrow=none;html=1;rounded=0;entryX=0;entryY=0;entryDx=0;entryDy=0;exitX=0.75;exitY=1;exitDx=0;exitDy=0;" parent="1" source="Ps72x_CAPzIs01cWg0P3-8" target="Ps72x_CAPzIs01cWg0P3-14" edge="1">
          <mxGeometry relative="1" as="geometry">
            <mxPoint x="2510" y="445" as="sourcePoint" />
            <mxPoint x="2620" y="475" as="targetPoint" />
          </mxGeometry>
        </mxCell>
        <mxCell id="Ps72x_CAPzIs01cWg0P3-21" value="" style="endArrow=none;html=1;rounded=0;entryX=1;entryY=0;entryDx=0;entryDy=0;exitX=0.25;exitY=1;exitDx=0;exitDy=0;" parent="1" source="Ps72x_CAPzIs01cWg0P3-8" target="Ps72x_CAPzIs01cWg0P3-15" edge="1">
          <mxGeometry relative="1" as="geometry">
            <mxPoint x="2480" y="475" as="sourcePoint" />
            <mxPoint x="2562" y="567" as="targetPoint" />
          </mxGeometry>
        </mxCell>
        <mxCell id="D6n-RsYbxnNGCq_Y-KKo-2" value="Discount" style="ellipse;whiteSpace=wrap;html=1;align=center;fontFamily=Times New Roman;" parent="1" vertex="1">
          <mxGeometry x="-880" y="510" width="80" height="80" as="geometry" />
        </mxCell>
        <mxCell id="D6n-RsYbxnNGCq_Y-KKo-3" value="" style="endArrow=none;html=1;rounded=0;exitX=1;exitY=1;exitDx=0;exitDy=0;entryX=0;entryY=0.25;entryDx=0;entryDy=0;" parent="1" source="D6n-RsYbxnNGCq_Y-KKo-2" target="-39aGfQmlGwq7Vqm4Gj2-2" edge="1">
          <mxGeometry relative="1" as="geometry">
            <mxPoint x="-810" y="670" as="sourcePoint" />
            <mxPoint x="-610" y="660" as="targetPoint" />
          </mxGeometry>
        </mxCell>
        <mxCell id="D6n-RsYbxnNGCq_Y-KKo-4" value="Promotional_price" style="ellipse;whiteSpace=wrap;html=1;align=center;fontFamily=Times New Roman;" parent="1" vertex="1">
          <mxGeometry x="-920" y="710" width="110" height="100" as="geometry" />
        </mxCell>
        <mxCell id="D6n-RsYbxnNGCq_Y-KKo-5" value="" style="endArrow=none;html=1;rounded=0;exitX=1;exitY=0.5;exitDx=0;exitDy=0;entryX=0;entryY=0.75;entryDx=0;entryDy=0;" parent="1" source="D6n-RsYbxnNGCq_Y-KKo-4" target="-39aGfQmlGwq7Vqm4Gj2-2" edge="1">
          <mxGeometry relative="1" as="geometry">
            <mxPoint x="-802" y="588" as="sourcePoint" />
            <mxPoint x="-610" y="645" as="targetPoint" />
          </mxGeometry>
        </mxCell>
        <mxCell id="D6n-RsYbxnNGCq_Y-KKo-6" value="Status" style="ellipse;whiteSpace=wrap;html=1;align=center;fontFamily=Times New Roman;" parent="1" vertex="1">
          <mxGeometry x="-400" y="620" width="80" height="80" as="geometry" />
        </mxCell>
        <mxCell id="D6n-RsYbxnNGCq_Y-KKo-7" value="" style="endArrow=none;html=1;rounded=0;exitX=0;exitY=0.5;exitDx=0;exitDy=0;entryX=1;entryY=0.5;entryDx=0;entryDy=0;" parent="1" source="D6n-RsYbxnNGCq_Y-KKo-6" target="-39aGfQmlGwq7Vqm4Gj2-2" edge="1">
          <mxGeometry relative="1" as="geometry">
            <mxPoint x="-410" y="580" as="sourcePoint" />
            <mxPoint x="-490" y="645" as="targetPoint" />
          </mxGeometry>
        </mxCell>
        <mxCell id="AOWzfmbm2vQC0sfhRamE-1" value="Original_price" style="ellipse;whiteSpace=wrap;html=1;align=center;fontFamily=Times New Roman;" parent="1" vertex="1">
          <mxGeometry x="-170" y="640" width="80" height="80" as="geometry" />
        </mxCell>
        <mxCell id="AOWzfmbm2vQC0sfhRamE-2" value="Promotional_price" style="ellipse;whiteSpace=wrap;html=1;align=center;fontFamily=Times New Roman;" parent="1" vertex="1">
          <mxGeometry x="100" y="730" width="110" height="100" as="geometry" />
        </mxCell>
        <mxCell id="AOWzfmbm2vQC0sfhRamE-3" value="" style="endArrow=none;html=1;rounded=0;exitX=0.5;exitY=0;exitDx=0;exitDy=0;entryX=0.75;entryY=1;entryDx=0;entryDy=0;" parent="1" source="AOWzfmbm2vQC0sfhRamE-2" target="-39aGfQmlGwq7Vqm4Gj2-3" edge="1">
          <mxGeometry relative="1" as="geometry">
            <mxPoint x="-772" y="832" as="sourcePoint" />
            <mxPoint x="-610" y="690" as="targetPoint" />
          </mxGeometry>
        </mxCell>
        <mxCell id="AOWzfmbm2vQC0sfhRamE-4" value="Original_price" style="ellipse;whiteSpace=wrap;html=1;align=center;fontFamily=Times New Roman;" parent="1" vertex="1">
          <mxGeometry x="1070" y="620" width="80" height="80" as="geometry" />
        </mxCell>
        <mxCell id="AOWzfmbm2vQC0sfhRamE-5" value="Promotional_price" style="ellipse;whiteSpace=wrap;html=1;align=center;fontFamily=Times New Roman;" parent="1" vertex="1">
          <mxGeometry x="1030" y="720" width="110" height="100" as="geometry" />
        </mxCell>
        <mxCell id="AOWzfmbm2vQC0sfhRamE-6" value="" style="endArrow=none;html=1;rounded=0;exitX=1;exitY=1;exitDx=0;exitDy=0;entryX=0;entryY=0;entryDx=0;entryDy=0;" parent="1" source="-39aGfQmlGwq7Vqm4Gj2-4" target="AOWzfmbm2vQC0sfhRamE-5" edge="1">
          <mxGeometry relative="1" as="geometry">
            <mxPoint x="904" y="690" as="sourcePoint" />
            <mxPoint x="920" y="780" as="targetPoint" />
          </mxGeometry>
        </mxCell>
        <mxCell id="AOWzfmbm2vQC0sfhRamE-9" value="Phone" style="ellipse;whiteSpace=wrap;html=1;align=center;fontFamily=Times New Roman;" parent="1" vertex="1">
          <mxGeometry x="1210" y="35" width="80" height="80" as="geometry" />
        </mxCell>
        <mxCell id="AOWzfmbm2vQC0sfhRamE-10" value="" style="endArrow=none;html=1;rounded=0;exitX=1;exitY=0.5;exitDx=0;exitDy=0;entryX=0;entryY=0.5;entryDx=0;entryDy=0;" parent="1" source="AOWzfmbm2vQC0sfhRamE-9" target="-39aGfQmlGwq7Vqm4Gj2-8" edge="1">
          <mxGeometry width="50" height="50" relative="1" as="geometry">
            <mxPoint x="1318" y="197" as="sourcePoint" />
            <mxPoint x="1410" y="105" as="targetPoint" />
          </mxGeometry>
        </mxCell>
        <mxCell id="RVRYtZYGYn3tEIroPi6O-1" value="Product" style="rounded=0;whiteSpace=wrap;html=1;fontFamily=Times New Roman;fontSize=14;fillColor=#bac8d3;strokeColor=#23445d;" parent="1" vertex="1">
          <mxGeometry x="-200" y="110" width="120" height="60" as="geometry" />
        </mxCell>
        <mxCell id="RVRYtZYGYn3tEIroPi6O-2" value="&lt;u&gt;id&lt;/u&gt;" style="ellipse;whiteSpace=wrap;html=1;align=center;fontFamily=Times New Roman;fillColor=#bac8d3;strokeColor=#23445d;" parent="1" vertex="1">
          <mxGeometry x="-230" y="-140" width="80" height="80" as="geometry" />
        </mxCell>
        <mxCell id="RVRYtZYGYn3tEIroPi6O-3" value="" style="endArrow=none;html=1;rounded=0;entryX=0.5;entryY=0;entryDx=0;entryDy=0;exitX=1;exitY=1;exitDx=0;exitDy=0;" parent="1" source="RVRYtZYGYn3tEIroPi6O-2" target="RVRYtZYGYn3tEIroPi6O-1" edge="1">
          <mxGeometry relative="1" as="geometry">
            <mxPoint x="-330" y="50" as="sourcePoint" />
            <mxPoint x="-580" y="630" as="targetPoint" />
          </mxGeometry>
        </mxCell>
        <mxCell id="RVRYtZYGYn3tEIroPi6O-6" value="description" style="ellipse;whiteSpace=wrap;html=1;align=center;fontFamily=Times New Roman;" parent="1" vertex="1">
          <mxGeometry x="-440" y="20" width="80" height="80" as="geometry" />
        </mxCell>
        <mxCell id="RVRYtZYGYn3tEIroPi6O-7" value="" style="endArrow=none;html=1;rounded=0;entryX=0;entryY=0.25;entryDx=0;entryDy=0;exitX=1;exitY=0.5;exitDx=0;exitDy=0;" parent="1" source="RVRYtZYGYn3tEIroPi6O-6" target="RVRYtZYGYn3tEIroPi6O-1" edge="1">
          <mxGeometry relative="1" as="geometry">
            <mxPoint x="-322" y="-32" as="sourcePoint" />
            <mxPoint x="-184" y="119" as="targetPoint" />
          </mxGeometry>
        </mxCell>
        <mxCell id="RVRYtZYGYn3tEIroPi6O-19" value="profile_image" style="ellipse;whiteSpace=wrap;html=1;align=center;fontFamily=Times New Roman;" parent="1" vertex="1">
          <mxGeometry x="1310" y="225" width="80" height="80" as="geometry" />
        </mxCell>
        <mxCell id="RVRYtZYGYn3tEIroPi6O-20" value="" style="endArrow=none;html=1;rounded=0;exitX=0.5;exitY=0;exitDx=0;exitDy=0;entryX=0.125;entryY=1.015;entryDx=0;entryDy=0;entryPerimeter=0;" parent="1" source="RVRYtZYGYn3tEIroPi6O-19" target="-39aGfQmlGwq7Vqm4Gj2-8" edge="1">
          <mxGeometry width="50" height="50" relative="1" as="geometry">
            <mxPoint x="1288" y="167" as="sourcePoint" />
            <mxPoint x="1410" y="105" as="targetPoint" />
          </mxGeometry>
        </mxCell>
        <mxCell id="opiDHjja_M9IIj3c-hqO-1" value="Category" style="ellipse;whiteSpace=wrap;html=1;align=center;fontFamily=Times New Roman;" parent="1" vertex="1">
          <mxGeometry x="-365" y="1230" width="80" height="80" as="geometry" />
        </mxCell>
        <mxCell id="opiDHjja_M9IIj3c-hqO-2" value="" style="endArrow=none;html=1;rounded=0;exitX=0.5;exitY=1;exitDx=0;exitDy=0;entryX=0.5;entryY=0;entryDx=0;entryDy=0;" parent="1" source="-39aGfQmlGwq7Vqm4Gj2-5" target="opiDHjja_M9IIj3c-hqO-1" edge="1">
          <mxGeometry relative="1" as="geometry">
            <mxPoint x="-240" y="1170" as="sourcePoint" />
            <mxPoint x="-188" y="1222" as="targetPoint" />
          </mxGeometry>
        </mxCell>
        <mxCell id="Zc_DHtP7tXUmxFc3Y5JZ-7" value="Has" style="shape=rhombus;perimeter=rhombusPerimeter;whiteSpace=wrap;html=1;align=center;fontFamily=Times New Roman;fontSize=14;" parent="1" vertex="1">
          <mxGeometry x="1940" y="505" width="120" height="60" as="geometry" />
        </mxCell>
        <mxCell id="Zc_DHtP7tXUmxFc3Y5JZ-8" value="" style="endArrow=none;html=1;rounded=0;exitX=1;exitY=0.5;exitDx=0;exitDy=0;entryX=0;entryY=1;entryDx=0;entryDy=0;" parent="1" source="Zc_DHtP7tXUmxFc3Y5JZ-7" target="Ps72x_CAPzIs01cWg0P3-8" edge="1">
          <mxGeometry relative="1" as="geometry">
            <mxPoint x="1550" y="615" as="sourcePoint" />
            <mxPoint x="1460" y="375" as="targetPoint" />
          </mxGeometry>
        </mxCell>
        <mxCell id="Zc_DHtP7tXUmxFc3Y5JZ-9" value="" style="endArrow=none;html=1;rounded=0;exitX=1;exitY=0.5;exitDx=0;exitDy=0;entryX=0;entryY=0.5;entryDx=0;entryDy=0;" parent="1" source="4Ifun2rpdEGk2oc76qXA-22" target="Zc_DHtP7tXUmxFc3Y5JZ-7" edge="1">
          <mxGeometry relative="1" as="geometry">
            <mxPoint x="1550" y="615" as="sourcePoint" />
            <mxPoint x="1460" y="375" as="targetPoint" />
          </mxGeometry>
        </mxCell>
        <mxCell id="Zc_DHtP7tXUmxFc3Y5JZ-10" value="1" style="text;strokeColor=none;fillColor=none;spacingLeft=4;spacingRight=4;overflow=hidden;rotatable=0;points=[[0,0.5],[1,0.5]];portConstraint=eastwest;fontSize=14;whiteSpace=wrap;html=1;fontFamily=Times New Roman;" parent="1" vertex="1">
          <mxGeometry x="2050" y="495" width="40" height="30" as="geometry" />
        </mxCell>
        <mxCell id="Zc_DHtP7tXUmxFc3Y5JZ-11" value="n" style="text;strokeColor=none;fillColor=none;spacingLeft=4;spacingRight=4;overflow=hidden;rotatable=0;points=[[0,0.5],[1,0.5]];portConstraint=eastwest;fontSize=14;whiteSpace=wrap;html=1;fontFamily=Times New Roman;" parent="1" vertex="1">
          <mxGeometry x="1910" y="500" width="40" height="30" as="geometry" />
        </mxCell>
        <mxCell id="YY1pMUt3vg4uT6gyut-r-1" value="Has" style="shape=rhombus;perimeter=rhombusPerimeter;whiteSpace=wrap;html=1;align=center;fontFamily=Times New Roman;fontSize=14;" parent="1" vertex="1">
          <mxGeometry x="-490" y="240" width="120" height="60" as="geometry" />
        </mxCell>
        <mxCell id="YY1pMUt3vg4uT6gyut-r-2" value="Has" style="shape=rhombus;perimeter=rhombusPerimeter;whiteSpace=wrap;html=1;align=center;fontFamily=Times New Roman;fontSize=14;" parent="1" vertex="1">
          <mxGeometry x="-90" y="250" width="120" height="60" as="geometry" />
        </mxCell>
        <mxCell id="YY1pMUt3vg4uT6gyut-r-3" value="Has" style="shape=rhombus;perimeter=rhombusPerimeter;whiteSpace=wrap;html=1;align=center;fontFamily=Times New Roman;fontSize=14;" parent="1" vertex="1">
          <mxGeometry x="500" y="235" width="120" height="60" as="geometry" />
        </mxCell>
        <mxCell id="YY1pMUt3vg4uT6gyut-r-4" value="" style="endArrow=none;html=1;rounded=0;entryX=0.25;entryY=1;entryDx=0;entryDy=0;exitX=1;exitY=0.5;exitDx=0;exitDy=0;" parent="1" source="YY1pMUt3vg4uT6gyut-r-1" target="RVRYtZYGYn3tEIroPi6O-1" edge="1">
          <mxGeometry relative="1" as="geometry">
            <mxPoint x="-350" y="70" as="sourcePoint" />
            <mxPoint x="-190" y="135" as="targetPoint" />
          </mxGeometry>
        </mxCell>
        <mxCell id="YY1pMUt3vg4uT6gyut-r-5" value="" style="endArrow=none;html=1;rounded=0;entryX=0.5;entryY=1;entryDx=0;entryDy=0;exitX=0.5;exitY=0;exitDx=0;exitDy=0;" parent="1" source="-39aGfQmlGwq7Vqm4Gj2-2" target="YY1pMUt3vg4uT6gyut-r-1" edge="1">
          <mxGeometry relative="1" as="geometry">
            <mxPoint x="-510" y="390" as="sourcePoint" />
            <mxPoint x="-160" y="180" as="targetPoint" />
          </mxGeometry>
        </mxCell>
        <mxCell id="YY1pMUt3vg4uT6gyut-r-7" value="1" style="text;strokeColor=none;fillColor=none;spacingLeft=4;spacingRight=4;overflow=hidden;rotatable=0;points=[[0,0.5],[1,0.5]];portConstraint=eastwest;fontSize=14;whiteSpace=wrap;html=1;fontFamily=Times New Roman;" parent="1" vertex="1">
          <mxGeometry x="-490" y="300" width="40" height="30" as="geometry" />
        </mxCell>
        <mxCell id="YY1pMUt3vg4uT6gyut-r-8" value="n" style="text;strokeColor=none;fillColor=none;spacingLeft=4;spacingRight=4;overflow=hidden;rotatable=0;points=[[0,0.5],[1,0.5]];portConstraint=eastwest;fontSize=14;whiteSpace=wrap;html=1;fontFamily=Times New Roman;" parent="1" vertex="1">
          <mxGeometry x="-400" y="230" width="40" height="30" as="geometry" />
        </mxCell>
        <mxCell id="YY1pMUt3vg4uT6gyut-r-9" value="" style="endArrow=none;html=1;rounded=0;entryX=0.75;entryY=1;entryDx=0;entryDy=0;exitX=0.5;exitY=0;exitDx=0;exitDy=0;" parent="1" source="YY1pMUt3vg4uT6gyut-r-2" target="RVRYtZYGYn3tEIroPi6O-1" edge="1">
          <mxGeometry relative="1" as="geometry">
            <mxPoint x="-360" y="280" as="sourcePoint" />
            <mxPoint x="-160" y="180" as="targetPoint" />
          </mxGeometry>
        </mxCell>
        <mxCell id="YY1pMUt3vg4uT6gyut-r-10" value="" style="endArrow=none;html=1;rounded=0;entryX=0.5;entryY=1;entryDx=0;entryDy=0;exitX=0.25;exitY=0;exitDx=0;exitDy=0;" parent="1" source="-39aGfQmlGwq7Vqm4Gj2-3" target="YY1pMUt3vg4uT6gyut-r-2" edge="1">
          <mxGeometry relative="1" as="geometry">
            <mxPoint x="-20" y="260" as="sourcePoint" />
            <mxPoint x="-100" y="180" as="targetPoint" />
          </mxGeometry>
        </mxCell>
        <mxCell id="YY1pMUt3vg4uT6gyut-r-11" value="1" style="text;strokeColor=none;fillColor=none;spacingLeft=4;spacingRight=4;overflow=hidden;rotatable=0;points=[[0,0.5],[1,0.5]];portConstraint=eastwest;fontSize=14;whiteSpace=wrap;html=1;fontFamily=Times New Roman;" parent="1" vertex="1">
          <mxGeometry x="-70" y="320" width="40" height="30" as="geometry" />
        </mxCell>
        <mxCell id="YY1pMUt3vg4uT6gyut-r-12" value="n" style="text;strokeColor=none;fillColor=none;spacingLeft=4;spacingRight=4;overflow=hidden;rotatable=0;points=[[0,0.5],[1,0.5]];portConstraint=eastwest;fontSize=14;whiteSpace=wrap;html=1;fontFamily=Times New Roman;" parent="1" vertex="1">
          <mxGeometry x="-90" y="230" width="40" height="30" as="geometry" />
        </mxCell>
        <mxCell id="YY1pMUt3vg4uT6gyut-r-13" value="" style="endArrow=none;html=1;rounded=0;entryX=1;entryY=0.75;entryDx=0;entryDy=0;exitX=0;exitY=0.5;exitDx=0;exitDy=0;" parent="1" source="YY1pMUt3vg4uT6gyut-r-3" target="RVRYtZYGYn3tEIroPi6O-1" edge="1">
          <mxGeometry relative="1" as="geometry">
            <mxPoint x="-20" y="260" as="sourcePoint" />
            <mxPoint x="-100" y="180" as="targetPoint" />
          </mxGeometry>
        </mxCell>
        <mxCell id="YY1pMUt3vg4uT6gyut-r-14" value="" style="endArrow=none;html=1;rounded=0;entryX=0.5;entryY=1;entryDx=0;entryDy=0;exitX=0.25;exitY=0;exitDx=0;exitDy=0;" parent="1" source="-39aGfQmlGwq7Vqm4Gj2-4" target="YY1pMUt3vg4uT6gyut-r-3" edge="1">
          <mxGeometry relative="1" as="geometry">
            <mxPoint x="720" y="430" as="sourcePoint" />
            <mxPoint x="-70" y="150" as="targetPoint" />
          </mxGeometry>
        </mxCell>
        <mxCell id="YY1pMUt3vg4uT6gyut-r-15" value="1" style="text;strokeColor=none;fillColor=none;spacingLeft=4;spacingRight=4;overflow=hidden;rotatable=0;points=[[0,0.5],[1,0.5]];portConstraint=eastwest;fontSize=14;whiteSpace=wrap;html=1;fontFamily=Times New Roman;" parent="1" vertex="1">
          <mxGeometry x="530" y="300" width="40" height="30" as="geometry" />
        </mxCell>
        <mxCell id="YY1pMUt3vg4uT6gyut-r-16" value="n" style="text;strokeColor=none;fillColor=none;spacingLeft=4;spacingRight=4;overflow=hidden;rotatable=0;points=[[0,0.5],[1,0.5]];portConstraint=eastwest;fontSize=14;whiteSpace=wrap;html=1;fontFamily=Times New Roman;" parent="1" vertex="1">
          <mxGeometry x="490" y="220" width="40" height="30" as="geometry" />
        </mxCell>
        <mxCell id="Ft0vI8RPt61ajyQhM1i7-2" value="Has" style="shape=rhombus;perimeter=rhombusPerimeter;whiteSpace=wrap;html=1;align=center;fontFamily=Times New Roman;fontSize=14;" parent="1" vertex="1">
          <mxGeometry x="620" y="150" width="120" height="60" as="geometry" />
        </mxCell>
        <mxCell id="Ft0vI8RPt61ajyQhM1i7-3" value="" style="endArrow=none;html=1;rounded=0;entryX=1;entryY=0.25;entryDx=0;entryDy=0;exitX=0;exitY=0.5;exitDx=0;exitDy=0;" parent="1" source="Ft0vI8RPt61ajyQhM1i7-2" target="RVRYtZYGYn3tEIroPi6O-1" edge="1">
          <mxGeometry relative="1" as="geometry">
            <mxPoint x="510" y="275" as="sourcePoint" />
            <mxPoint x="-70" y="165" as="targetPoint" />
          </mxGeometry>
        </mxCell>
        <mxCell id="Ft0vI8RPt61ajyQhM1i7-4" value="" style="endArrow=none;html=1;rounded=0;exitX=1;exitY=0.5;exitDx=0;exitDy=0;entryX=0;entryY=0.25;entryDx=0;entryDy=0;" parent="1" source="Ft0vI8RPt61ajyQhM1i7-2" target="4Ifun2rpdEGk2oc76qXA-31" edge="1">
          <mxGeometry relative="1" as="geometry">
            <mxPoint x="630" y="190" as="sourcePoint" />
            <mxPoint x="1440" y="710" as="targetPoint" />
          </mxGeometry>
        </mxCell>
        <mxCell id="Ft0vI8RPt61ajyQhM1i7-6" value="n" style="text;strokeColor=none;fillColor=none;spacingLeft=4;spacingRight=4;overflow=hidden;rotatable=0;points=[[0,0.5],[1,0.5]];portConstraint=eastwest;fontSize=14;whiteSpace=wrap;html=1;fontFamily=Times New Roman;" parent="1" vertex="1">
          <mxGeometry x="600" y="140" width="40" height="30" as="geometry" />
        </mxCell>
        <mxCell id="Ft0vI8RPt61ajyQhM1i7-7" value="1" style="text;strokeColor=none;fillColor=none;spacingLeft=4;spacingRight=4;overflow=hidden;rotatable=0;points=[[0,0.5],[1,0.5]];portConstraint=eastwest;fontSize=14;whiteSpace=wrap;html=1;fontFamily=Times New Roman;" parent="1" vertex="1">
          <mxGeometry x="720" y="190" width="40" height="30" as="geometry" />
        </mxCell>
        <mxCell id="Ft0vI8RPt61ajyQhM1i7-10" value="Color" style="ellipse;whiteSpace=wrap;html=1;align=center;fontFamily=Times New Roman;" parent="1" vertex="1">
          <mxGeometry x="-505" y="775" width="80" height="80" as="geometry" />
        </mxCell>
        <mxCell id="Ft0vI8RPt61ajyQhM1i7-11" value="" style="endArrow=none;html=1;rounded=0;entryX=0.75;entryY=1;entryDx=0;entryDy=0;exitX=0.292;exitY=0.025;exitDx=0;exitDy=0;exitPerimeter=0;" parent="1" source="Ft0vI8RPt61ajyQhM1i7-10" target="-39aGfQmlGwq7Vqm4Gj2-2" edge="1">
          <mxGeometry relative="1" as="geometry">
            <mxPoint x="-476" y="770" as="sourcePoint" />
            <mxPoint x="-490" y="675" as="targetPoint" />
          </mxGeometry>
        </mxCell>
        <mxCell id="Ft0vI8RPt61ajyQhM1i7-13" value="Color" style="ellipse;whiteSpace=wrap;html=1;align=center;fontFamily=Times New Roman;" parent="1" vertex="1">
          <mxGeometry x="760" y="785" width="80" height="80" as="geometry" />
        </mxCell>
        <mxCell id="Ft0vI8RPt61ajyQhM1i7-14" value="" style="endArrow=none;html=1;rounded=0;exitX=0.75;exitY=1;exitDx=0;exitDy=0;entryX=0.5;entryY=0;entryDx=0;entryDy=0;" parent="1" source="-39aGfQmlGwq7Vqm4Gj2-4" target="Ft0vI8RPt61ajyQhM1i7-13" edge="1">
          <mxGeometry relative="1" as="geometry">
            <mxPoint x="904" y="690" as="sourcePoint" />
            <mxPoint x="920" y="780" as="targetPoint" />
          </mxGeometry>
        </mxCell>
        <mxCell id="STZr-6IM1sFQzzgMIE4w-1" value="Description" style="ellipse;whiteSpace=wrap;html=1;align=center;fontFamily=Times New Roman;" parent="1" vertex="1">
          <mxGeometry x="-645" y="815" width="80" height="80" as="geometry" />
        </mxCell>
        <mxCell id="STZr-6IM1sFQzzgMIE4w-2" value="" style="endArrow=none;html=1;rounded=0;exitX=0.5;exitY=0;exitDx=0;exitDy=0;entryX=0.5;entryY=1;entryDx=0;entryDy=0;" parent="1" source="STZr-6IM1sFQzzgMIE4w-1" target="-39aGfQmlGwq7Vqm4Gj2-2" edge="1">
          <mxGeometry relative="1" as="geometry">
            <mxPoint x="-680" y="820" as="sourcePoint" />
            <mxPoint x="-580" y="690" as="targetPoint" />
          </mxGeometry>
        </mxCell>
        <mxCell id="sAzruXvB1CQNJEntsmJP-1" value="" style="endArrow=none;html=1;rounded=0;exitX=0.5;exitY=0;exitDx=0;exitDy=0;entryX=0.367;entryY=1;entryDx=0;entryDy=0;entryPerimeter=0;" edge="1" source="sAzruXvB1CQNJEntsmJP-2" parent="1" target="-39aGfQmlGwq7Vqm4Gj2-3">
          <mxGeometry relative="1" as="geometry">
            <mxPoint x="-90" y="815" as="sourcePoint" />
            <mxPoint x="30" y="675" as="targetPoint" />
          </mxGeometry>
        </mxCell>
        <mxCell id="sAzruXvB1CQNJEntsmJP-2" value="Description" style="ellipse;whiteSpace=wrap;html=1;align=center;fontFamily=Times New Roman;" vertex="1" parent="1">
          <mxGeometry x="-55" y="810" width="80" height="80" as="geometry" />
        </mxCell>
        <mxCell id="sAzruXvB1CQNJEntsmJP-3" value="Description" style="ellipse;whiteSpace=wrap;html=1;align=center;fontFamily=Times New Roman;" vertex="1" parent="1">
          <mxGeometry x="570" y="765" width="80" height="80" as="geometry" />
        </mxCell>
        <mxCell id="sAzruXvB1CQNJEntsmJP-4" value="" style="endArrow=none;html=1;rounded=0;exitX=0.5;exitY=0;exitDx=0;exitDy=0;entryX=0.25;entryY=1;entryDx=0;entryDy=0;" edge="1" source="sAzruXvB1CQNJEntsmJP-3" parent="1" target="-39aGfQmlGwq7Vqm4Gj2-4">
          <mxGeometry relative="1" as="geometry">
            <mxPoint x="535" y="765" as="sourcePoint" />
            <mxPoint x="790" y="690" as="targetPoint" />
          </mxGeometry>
        </mxCell>
      </root>
    </mxGraphModel>
  </diagram>
</mxfile>
